inDegrees=no
num_controls=7
num_derivatives=13
num_iterations=94
num_multipliers=7
num_parameters=0
num_slacks=7
num_states=26
objective=4.092292
objective_accelerations=0.298453
objective_balance=0.034583
objective_effort=0.342416
objective_height=3.355103
objective_ligament=0.061737
solver_duration=1022.083020
status=Solve_Succeeded
success=true
DataType=double
version=3
OpenSimVersion=4.4-2022-07-23-0e9fedc
endheader
time	/jointset/ground_pelvis/pelvis_tilt/value	/jointset/ground_pelvis/pelvis_tx/value	/jointset/ground_pelvis/pelvis_ty/value	/jointset/hip_l/hip_flexion_l/value	/jointset/hip_l/hip_adduction_l/value	/jointset/hip_l/hip_rotation_l/value	/jointset/back/lumbar_extension/value	/jointset/patellofemoral_l/patellar_flexion_l/value	/jointset/knee_l/knee_flexion_l/value	/jointset/knee_l/knee_adduction_l/value	/jointset/knee_l/knee_rotation_l/value	/jointset/ankle_l/ankle_angle_l/value	/jointset/subtalar_l/subtalar_angle_l/value	/jointset/ground_pelvis/pelvis_tilt/speed	/jointset/ground_pelvis/pelvis_tx/speed	/jointset/ground_pelvis/pelvis_ty/speed	/jointset/hip_l/hip_flexion_l/speed	/jointset/hip_l/hip_adduction_l/speed	/jointset/hip_l/hip_rotation_l/speed	/jointset/back/lumbar_extension/speed	/jointset/patellofemoral_l/patellar_flexion_l/speed	/jointset/knee_l/knee_flexion_l/speed	/jointset/knee_l/knee_adduction_l/speed	/jointset/knee_l/knee_rotation_l/speed	/jointset/ankle_l/ankle_angle_l/speed	/jointset/subtalar_l/subtalar_angle_l/speed	/forceset/tau_hip_flexion_l	/forceset/tau_hip_adduction_l	/forceset/tau_hip_rotation_l	/forceset/tau_knee_flexion_l	/forceset/tau_ankle_angle_l	/forceset/tau_subtalar_angle_l	/forceset/tau_lumbar_extension	lambda_cid13_p0	lambda_cid13_p1	lambda_cid13_p2	lambda_cid13_p3	lambda_cid13_p4	lambda_cid13_p5	lambda_cid14_p0	/jointset/ground_pelvis/pelvis_tilt/accel	/jointset/ground_pelvis/pelvis_tx/accel	/jointset/ground_pelvis/pelvis_ty/accel	/jointset/hip_l/hip_flexion_l/accel	/jointset/hip_l/hip_adduction_l/accel	/jointset/hip_l/hip_rotation_l/accel	/jointset/back/lumbar_extension/accel	/jointset/patellofemoral_l/patellar_flexion_l/accel	/jointset/knee_l/knee_flexion_l/accel	/jointset/knee_l/knee_adduction_l/accel	/jointset/knee_l/knee_rotation_l/accel	/jointset/ankle_l/ankle_angle_l/accel	/jointset/subtalar_l/subtalar_angle_l/accel	gamma_cid13_p0	gamma_cid13_p1	gamma_cid13_p2	gamma_cid13_p3	gamma_cid13_p4	gamma_cid13_p5	gamma_cid14_p0
0	-0.1601649636478638	0.0585737097161009	0.8979986775044009	0.3774920279260975	-0.2591381163178235	-0.2729490882434177	-0.0126506700172305	0.03223623128424485	0.03223623128433527	-0.1745326304749951	0.1745069813751262	-0.04231376238535053	-0.009262793450534068	0	0	0	0	0	0	0	0	0	0	0	0	0	0.1294306332411992	-0.062077269678725	-0.04943913498695385	-0.290208360083274	0.3034712733658593	-0.05310476366339215	-0.07496601434445146	54.62634446509432	6.879662962148797	6.061331647216714	-9.547300265440619	-597.7978376997943	-62.11519830077813	-39.07372552580456	-3.019765073958355	-1.605209717808066	-0.8390682420117328	9.456161539436792	-0.9920290074938347	2.572921588632446	-5.073763520781266	7.32264794606064	7.322647946055534	0.1207202173399401	-0.02464608946288692	0.9919482425362453	-0.7869462569524006	-3.010113867835485e-08	1.042476701744326e-07	5.154564182660741e-08	1.124433684033459e-08	3.004401818112495e-08	6.316288283097004e-09	-5.265488480468213e-09
0.01	-0.160309870425854	0.05849423476817159	0.8979577478536255	0.3779523641648788	-0.2591873767617505	-0.272821488041404	-0.01290428056237498	0.03259377007863427	0.03259377007881691	-0.1745281264665723	0.1745039116366411	-0.04226668567115781	-0.009302367165468421	-0.02874725326016036	-0.0158455747493024	-0.008148218721410173	0.0915694382623036	-0.009799583682314775	0.02533370482712002	-0.05034254935704786	0.07119105448268709	0.07119105448267293	0.0008947851721436087	-0.0005426841197330004	0.009350188645582798	-0.007876425669191006	0.121596601334186	-0.07192077691509703	-0.04765076906963719	-0.2793615220899219	0.2857633191729712	-0.0366558235025785	-0.06891806881899383	49.54199926556178	0.9104989994365245	6.688149530414144	-6.764682349031181	-598.678272625433	-73.3522809247705	-39.08384114221403	-2.767096259206877	-1.566816870803592	-0.7970359633171116	8.932657779427737	-0.9660687574529766	2.485640705026555	-4.957566697675094	6.96982959124669	6.969829591247743	0.07297830969631169	-0.05839208540860342	0.8967788605230237	-0.7822650420364829	-3.827727362742606e-08	8.121187397391126e-08	7.001599625215924e-08	1.896988266629108e-08	-5.516727647691626e-08	9.85444452032429e-09	-1.06123767939388e-08
0.02	-0.1607352278977441	0.05825778696929572	0.8978364685604111	0.3793134593482704	-0.2593330621842847	-0.2724461416360557	-0.01364992981198926	0.0336537184962724	0.03365371849627009	-0.174514850477562	0.1744975525545318	-0.04212806213351462	-0.009419560001120679	-0.05609013880723607	-0.03139457018931335	-0.01606992848780997	0.1801517889166672	-0.01928499571875195	0.04954924066522393	-0.09840774089486116	0.1404819246403238	0.1404819246403112	0.001754396046054441	-0.0006578687266441498	0.01830936468935054	-0.01552382414374304	0.1137625694263322	-0.08176428415141197	-0.04586240315319733	-0.268514684096968	0.2680553649798958	-0.02020688334173663	-0.06287012329406223	44.51785076925042	-5.068133489347119	7.315255474034053	-4.088926984754393	-598.6432307791328	-84.50069220514871	-39.11386338891712	-2.738891531344672	-1.545893855946799	-0.793766451009649	8.858744017848204	-0.9291946783188184	2.349287790829286	-4.618291956936202	6.94261108105012	6.942611081048165	0.1136853576922696	0.0608538131014545	0.9137457221765675	-0.7411408180243078	-4.645340857649726e-08	5.817607777338994e-08	8.848635067771109e-08	2.669542849224758e-08	-1.403785711349575e-07	1.339260075755158e-08	-1.59592651074094e-08
0.03	-0.1614280765493706	0.05786770725616686	0.8976368832391753	0.3815467754150243	-0.2595718496748347	-0.2718329225771238	-0.01486554544357708	0.03539784310835511	0.03539784310847022	-0.1744926712588814	0.1744911795166475	-0.04190093167017608	-0.00961173443287895	-0.08232863222625059	-0.04653268878343492	-0.02382742114966051	0.2661047067947844	-0.02840716120767862	0.07304156628951081	-0.1444309975208297	0.2080833022495504	0.2080833022495395	0.002710417376992451	-0.0006539804802889057	0.02713249798852482	-0.02284448904229668	0.1093637527006251	-0.07636253411277161	-0.0452566155558872	-0.2647507236411862	0.2648925109919396	-0.02301035094923536	-0.05919475808878524	43.40504781077447	-3.767248541621298	7.235223180461363	-3.952602681250346	-598.8196196793707	-81.15831881003908	-39.16301167552479	-2.543688193221283	-1.484462935047932	-0.7638119023094845	8.402551341302669	-0.8939356468726289	2.341240945854794	-4.551684335529754	6.629949982324898	6.629949982326092	0.09092234264202442	-0.03544253431364722	0.8689598036093568	-0.717562055799828	-6.080038825611496e-08	8.96358749643033e-08	9.750419878325642e-08	4.052439040122113e-08	-2.038447651987199e-07	2.616770215942965e-08	-1.639153082498176e-08
